# xmcd CD database file
#
# Track frame offsets:
#	150
#	18875
#	41588
#	62700
#	90038
#	109950
#	125925
#	139275
#	158738
#
# Disc length: 2385 seconds
#
# Revision: 3
# Processed by: cddbd v1.5.2PL0 Copyright (c) Steve Scherf et al.
# Submitted via: CDex 1.51
#
DISCID=73094f09
DTITLE=Byther Smith - Housefire
DYEAR=1984
DGENRE=Blues
TTITLE0=Money Tree
TTITLE1=Live On And Sing The Blues
TTITLE2=Martha Dear
TTITLE3=Look All Around You
TTITLE4=The Man Wants Me Dead
TTITLE5=Knockdown
TTITLE6=Wait And See
TTITLE7=Love Me Like I Love You
TTITLE8=Here I Am
EXTD=CD BB 9503\n\nSubmitted 7/2/97\n[Jmccoy@efn.org] YEAR: 1984
EXTT0=
EXTT1=
EXTT2=
EXTT3=
EXTT4=
EXTT5=
EXTT6=
EXTT7=
EXTT8=
PLAYORDER=
